<svg xmlns="http://www.w3.org/2000/svg" viewBox="0 0 1080 660" width="100%" height="100%">
  <defs>
    <mask id="textMaskWhite">
      <rect width="100%" height="100%" fill="white" />
      <text x="250" y="154" font-family="Arial, Helvetica, sans-serif" font-weight="bold" font-size="55" letter-spacing="2" dominant-baseline="central" fill="black">SICHERHEIT</text>
      <text x="250" y="394" font-family="Arial, Helvetica, sans-serif" font-weight="bold" font-size="55" letter-spacing="2" dominant-baseline="central" fill="black">ÜBERWACHUNG</text>
    </mask>
  </defs>

  <g mask="url(#textMaskWhite)" fill="#ffffff">
    <path d="M 650,110 A 40 40 0 0 1 650,190 L 250,190 A 80 80 0 0 0 250,350 L 700,350 A 40 40 0 0 1 700,430 L 250,430 A 160 160 0 0 1 250,110 Z" />
    
    <path d="M 650,230 L 840,230 A 160 160 0 0 1 840,550 L 80,550 L 120,510 L 80,470 L 840,470 A 80 80 0 0 0 840,310 L 650,310 Z" />
    
    <rect x="590" y="230" width="50" height="80" rx="10" />
    <rect x="560" y="248" width="30" height="14" />
    <rect x="560" y="278" width="30" height="14" />
  </g>

  <text x="250" y="275" font-family="Arial, Helvetica, sans-serif" font-weight="900" font-size="90" letter-spacing="1" dominant-baseline="central" fill="#ffffff">OHNE</text>
</svg>
